<svg width="24" height="24" viewBox="0 0 24 24" fill="none" xmlns="http://www.w3.org/2000/svg">
<g id="Group">
<path id="Vector" d="M12 0C5.37248 0 0 5.37262 0 11.9998C0 18.6273 5.37248 24 12 24C18.6275 24 24 18.6273 24 11.9998C24 5.37262 18.6275 0 12 0ZM11.9998 18.8396C8.75386 18.8382 6.43486 18.3972 6.489 17.9932C6.78389 15.785 8.56458 15.5726 9.69534 14.6678C10.2031 14.2616 10.4499 14.3632 10.4499 13.686C10.4499 13.4492 10.4499 13.0089 10.4499 12.6027C10.1451 12.2643 10.0343 12.3066 9.77648 10.9779C9.25561 10.9779 9.28917 10.3007 9.04345 9.70031C8.85173 9.23231 8.99714 9.03028 9.15797 8.94258C9.07116 8.47992 9.126 6.92648 9.79228 6.11794L9.68719 5.38439C9.68719 5.38439 9.89672 5.43694 10.4206 5.3318C10.9447 5.22741 12.202 4.9132 12.9356 5.54166C14.6961 5.8005 15.1636 7.24641 14.8202 8.93194C14.9888 9.01289 15.1567 9.21141 14.9562 9.70031C14.7106 10.3007 14.7442 10.9779 14.2233 10.9779C13.9657 12.3066 13.8547 12.2643 13.5499 12.6027C13.5499 13.0089 13.5499 13.4492 13.5499 13.686C13.5499 14.3632 13.7965 14.2616 14.3043 14.6678C15.4352 15.5726 17.2157 15.7849 17.5108 17.9932C17.5648 18.3972 15.2459 18.8382 11.9998 18.8396Z" fill="#2C4193"/>
</g>
</svg>
