<svg width="13" height="16" viewBox="0 0 13 16" fill="none" xmlns="http://www.w3.org/2000/svg">
<g id="Emoji">
<path id="Vector" d="M10.8936 2.27612H11.7045V2.68237H10.8936V2.27612Z" fill="#66757F"/>
<path id="Vector_2" d="M0 5.52637V13.6514C0 14.5488 0.727594 15.2764 1.625 15.2764H11.375C12.2724 15.2764 13 14.5488 13 13.6514V5.52637H0Z" fill="#CCD6DD"/>
<path id="Vector_3" d="M11.375 2.27612H1.625C0.727594 2.27612 0 3.00372 0 3.90112V5.93237H13V3.90112C13 3.00372 12.2724 2.27612 11.375 2.27612Z" fill="#DD2E44"/>
<path id="Vector_4" d="M2.77715 4.19809C2.49196 4.19809 2.2608 3.92753 2.2608 3.59319C2.2608 3.25925 2.49196 2.98828 2.77715 2.98828C3.06193 2.98828 3.29308 3.25925 3.29308 3.59319C3.29308 3.92713 3.06193 4.19809 2.77715 4.19809ZM5.21465 4.19809C4.92946 4.19809 4.6983 3.92753 4.6983 3.59319C4.6983 3.25925 4.92946 2.98828 5.21465 2.98828C5.49943 2.98828 5.73058 3.25925 5.73058 3.59319C5.73058 3.92713 5.49943 4.19809 5.21465 4.19809ZM7.65215 4.19809C7.36696 4.19809 7.1358 3.92753 7.1358 3.59319C7.1358 3.25925 7.36696 2.98828 7.65215 2.98828C7.93693 2.98828 8.16849 3.25925 8.16849 3.59319C8.16808 3.92713 7.93693 4.19809 7.65215 4.19809ZM10.0896 4.19809C9.80446 4.19809 9.5733 3.92753 9.5733 3.59319C9.5733 3.25925 9.80446 2.98828 10.0896 2.98828C10.3744 2.98828 10.606 3.25925 10.606 3.59319C10.6056 3.92713 10.3744 4.19809 10.0896 4.19809Z" fill="#292F33"/>
<path id="Vector_5" d="M10.2842 0.723877C9.76546 0.723877 9.31615 1.04969 9.06793 1.52419C8.82174 1.05985 8.3704 0.723877 7.84674 0.723877C7.32796 0.723877 6.87865 1.04969 6.63043 1.52419C6.38424 1.05985 5.9329 0.723877 5.40924 0.723877C4.89046 0.723877 4.44115 1.04969 4.19293 1.52419C3.94674 1.05985 3.4954 0.723877 2.97174 0.723877C2.18605 0.723877 1.54987 1.46285 1.54987 2.35091C1.54987 3.1041 1.9744 3.72038 2.59352 3.94585C2.90187 4.05756 3.09077 3.76425 3.06437 3.52903C3.04202 3.33403 2.91243 3.20688 2.76821 3.11547C2.57118 2.99075 2.36196 2.70597 2.36196 2.35294C2.36196 1.90444 2.63455 1.50185 2.97133 1.50185C3.30812 1.50185 3.58071 1.8695 3.58071 2.27575H3.99346C3.99224 2.30094 3.98696 2.32491 3.98696 2.3505C3.98696 3.10369 4.41149 3.71997 5.03062 3.94544C5.33896 4.05716 5.52787 3.76385 5.50146 3.52863C5.47912 3.33403 5.34952 3.20688 5.2053 3.11547C5.00827 2.99075 4.79905 2.70597 4.79905 2.35294C4.79905 1.90444 5.07165 1.50185 5.40843 1.50185C5.74521 1.50185 6.01862 1.86991 6.01862 2.27616H6.43137C6.43015 2.30135 6.42487 2.32531 6.42487 2.35091C6.42487 3.1041 6.8494 3.72038 7.46852 3.94585C7.77687 4.05756 7.96577 3.76425 7.93937 3.52903C7.91702 3.33444 7.78743 3.20728 7.64321 3.11588C7.44618 2.99116 7.23696 2.70638 7.23696 2.35335C7.23696 1.90485 7.50955 1.50225 7.84633 1.50225C8.18312 1.50225 8.45612 1.86991 8.45612 2.27616H8.86887C8.86765 2.30135 8.86237 2.32531 8.86237 2.35091C8.86237 3.1041 9.2869 3.72038 9.90602 3.94585C10.2144 4.05756 10.4033 3.76425 10.3769 3.52903C10.3545 3.33444 10.2249 3.20728 10.0807 3.11588C9.88368 2.99116 9.67446 2.70638 9.67446 2.35335C9.67446 1.90485 9.94705 1.50225 10.2838 1.50225C10.6206 1.50225 10.8936 1.86991 10.8936 2.27616H11.7045C11.696 1.46366 11.0642 0.723877 10.2842 0.723877Z" fill="#66757F"/>
<path id="Vector_6" d="M3.65625 6.74512H5.28125V8.37012H3.65625V6.74512ZM5.6875 6.74512H7.3125V8.37012H5.6875V6.74512ZM7.71875 6.74512H9.34375V8.37012H7.71875V6.74512ZM9.75 6.74512H11.375V8.37012H9.75V6.74512ZM1.625 8.77637H3.25V10.4014H1.625V8.77637ZM3.65625 8.77637H5.28125V10.4014H3.65625V8.77637ZM5.6875 8.77637H7.3125V10.4014H5.6875V8.77637ZM7.71875 8.77637H9.34375V10.4014H7.71875V8.77637ZM9.75 8.77637H11.375V10.4014H9.75V8.77637ZM1.625 10.8076H3.25V12.4326H1.625V10.8076ZM3.65625 10.8076H5.28125V12.4326H3.65625V10.8076ZM5.6875 10.8076H7.3125V12.4326H5.6875V10.8076ZM7.71875 10.8076H9.34375V12.4326H7.71875V10.8076ZM9.75 10.8076H11.375V12.4326H9.75V10.8076ZM1.625 12.8389H3.25V14.4639H1.625V12.8389ZM3.65625 12.8389H5.28125V14.4639H3.65625V12.8389ZM5.6875 12.8389H7.3125V14.4639H5.6875V12.8389Z" fill="white"/>
</g>
</svg>
