<svg width="12" height="12" viewBox="0 0 10 9" fill="none" xmlns="http://www.w3.org/2000/svg">
  <rect width="10" height="9" rx="2" fill="#3A2A9B" />
  <path d="M9.08533 0.149141C8.8829 0.0154853 8.63671 -0.0308417 8.4008 0.0203314C8.16489 0.0715045 7.95855 0.215995 7.82708 0.42208L3.86602 6.64442L2.03613 4.92001C1.94877 4.83544 1.84579 4.7694 1.73318 4.72573C1.62057 4.68206 1.50057 4.66162 1.38014 4.66561C1.25972 4.66959 1.14127 4.69792 1.03167 4.74895C0.92208 4.79997 0.823525 4.87268 0.741729 4.96285C0.659934 5.05301 0.596529 5.15884 0.555197 5.27419C0.513865 5.38954 0.495429 5.5121 0.500959 5.63477C0.506489 5.75744 0.535875 5.87777 0.587411 5.98877C0.638947 6.09977 0.711606 6.19922 0.801169 6.28137L3.42429 8.75339C3.59894 8.91842 3.8209 9 4.0414 9C4.28629 9 4.59958 8.89542 4.80516 8.57761C4.92596 8.38997 9.3535 1.43151 9.3535 1.43151C9.41851 1.32936 9.46315 1.21517 9.48485 1.09544C9.50656 0.975711 9.50492 0.852798 9.48002 0.733718C9.45512 0.614637 9.40744 0.501722 9.33972 0.40142C9.272 0.301118 9.18556 0.215394 9.08533 0.149141Z" fill="white"/>
</svg>
