<svg width="15" height="16" viewBox="0 0 15 16" fill="none" xmlns="http://www.w3.org/2000/svg">
<g id="Emoji">
<path id="Vector" d="M14.4134 15.111C14.4134 15.6016 13.9522 15.9998 13.3839 15.9998H1.02953C0.461229 15.9998 0 15.6016 0 15.111V3.11105C0 2.62039 0.461229 2.22217 1.02953 2.22217H13.3839C13.9522 2.22217 14.4134 2.62039 14.4134 3.11105V15.111Z" fill="#C1694F"/>
<path id="Vector_2" d="M12.8691 14.2223C12.8691 14.468 12.639 14.6667 12.3543 14.6667H2.05901C1.77486 14.6667 1.54425 14.468 1.54425 14.2223V4.00011C1.54425 3.75477 1.77486 3.55566 2.05901 3.55566H12.3543C12.639 3.55566 12.8691 3.75477 12.8691 4.00011V14.2223Z" fill="white"/>
<path id="Vector_3" d="M10.8101 1.33332H8.75102C8.75102 0.596885 8.05969 0 7.20673 0C6.35377 0 5.66244 0.596885 5.66244 1.33332H3.60338C3.03508 1.33332 2.57385 1.73154 2.57385 2.22221V4.44441H11.8396V2.22221C11.8396 1.73154 11.3784 1.33332 10.8101 1.33332Z" fill="#CCD6DD"/>
<path id="Vector_4" d="M7.20671 2.2221C7.77531 2.2221 8.23624 1.82413 8.23624 1.33322C8.23624 0.842302 7.77531 0.444336 7.20671 0.444336C6.63812 0.444336 6.17719 0.842302 6.17719 1.33322C6.17719 1.82413 6.63812 2.2221 7.20671 2.2221Z" fill="#292F33"/>
<path id="Vector_5" d="M8.23626 6.22227C8.23626 6.4676 8.00616 6.66671 7.72149 6.66671H3.08862C2.80447 6.66671 2.57385 6.4676 2.57385 6.22227C2.57385 5.97694 2.80447 5.77783 3.08862 5.77783H7.72149C8.00616 5.77783 8.23626 5.97694 8.23626 6.22227ZM11.8396 8.00004C11.8396 8.24537 11.6095 8.44448 11.3248 8.44448H3.08862C2.80447 8.44448 2.57385 8.24537 2.57385 8.00004C2.57385 7.75471 2.80447 7.5556 3.08862 7.5556H11.3248C11.6095 7.5556 11.8396 7.75471 11.8396 8.00004ZM11.8396 9.7778C11.8396 10.0236 11.6095 10.2222 11.3248 10.2222H3.08862C2.80447 10.2222 2.57385 10.0236 2.57385 9.7778C2.57385 9.53203 2.80447 9.33336 3.08862 9.33336H11.3248C11.6095 9.33336 11.8396 9.53203 11.8396 9.7778ZM11.8396 11.5556C11.8396 11.8013 11.6095 12 11.3248 12H3.08862C2.80447 12 2.57385 11.8013 2.57385 11.5556C2.57385 11.3098 2.80447 11.1111 3.08862 11.1111H11.3248C11.6095 11.1111 11.8396 11.3098 11.8396 11.5556ZM11.8396 13.3333C11.8396 13.5791 11.6095 13.7778 11.3248 13.7778H6.69197C6.40782 13.7778 6.1772 13.5791 6.1772 13.3333C6.1772 13.0876 6.40782 12.8889 6.69197 12.8889H11.3248C11.6095 12.8889 11.8396 13.0876 11.8396 13.3333Z" fill="#99AAB5"/>
</g>
</svg>
