<svg width="15" height="16" viewBox="0 0 15 16" fill="none" xmlns="http://www.w3.org/2000/svg">
<g id="Emoji">
<path id="Vector" d="M7.5 15.5C11.6421 15.5 15 12.1421 15 8C15 3.85786 11.6421 0.5 7.5 0.5C3.35786 0.5 0 3.85786 0 8C0 12.1421 3.35786 15.5 7.5 15.5Z" fill="#99AAB5"/>
<path id="Vector_2" d="M7.49996 13.8337C10.7216 13.8337 13.3333 11.222 13.3333 8.00033C13.3333 4.77866 10.7216 2.16699 7.49996 2.16699C4.2783 2.16699 1.66663 4.77866 1.66663 8.00033C1.66663 11.222 4.2783 13.8337 7.49996 13.8337Z" fill="#E1E8ED"/>
<path id="Vector_3" d="M7.91665 8C7.91665 8.23042 7.7304 8.41667 7.49998 8.41667C7.26998 8.41667 7.08331 8.23042 7.08331 8V3.41667C7.08331 3.18667 7.26998 3 7.49998 3C7.7304 3 7.91665 3.18667 7.91665 3.41667V8Z" fill="#66757F"/>
<path id="Vector_4" d="M11.1087 5.91684C11.2237 6.11642 11.1554 6.371 10.9562 6.48601L7.70829 8.361C7.50912 8.476 7.25454 8.40767 7.13954 8.2085C7.02454 8.00934 7.09287 7.75434 7.29162 7.63934L10.5395 5.76434C10.7387 5.64934 10.9937 5.71767 11.1087 5.91684Z" fill="#66757F"/>
</g>
</svg>
