<svg width="29" height="29" viewBox="0 0 29 29" fill="none" xmlns="http://www.w3.org/2000/svg">
<g id="Close button">
<path id="Vector" d="M11.8441 10.4125C11.4491 10.0174 10.8085 10.0174 10.4135 10.4125C10.0184 10.8076 10.0184 11.4481 10.4135 11.8431L13.0702 14.4999L10.4135 17.1567C10.0184 17.5518 10.0184 18.1922 10.4135 18.5873C10.8086 18.9824 11.4491 18.9824 11.8441 18.5873L14.5009 15.9306L17.1576 18.5873C17.5527 18.9824 18.1933 18.9824 18.5883 18.5873C18.9834 18.1922 18.9834 17.5517 18.5883 17.1567L15.9315 14.4999L18.5883 11.8431C18.9834 11.4481 18.9834 10.8076 18.5883 10.4125C18.1933 10.0175 17.5527 10.0175 17.1576 10.4125L14.5009 13.0694L11.8441 10.4125Z" fill="#1C274C"/>
<path id="Vector_2" fill-rule="evenodd" clip-rule="evenodd" d="M14.5774 1.95832e-07H14.4226C11.309 -1.32925e-05 8.86886 -2.68325e-05 6.965 0.255942C5.01629 0.51794 3.47858 1.06468 2.27163 2.27163C1.06468 3.47858 0.51794 5.01629 0.255942 6.965C-2.68325e-05 8.86886 -1.32925e-05 11.3089 1.95832e-07 14.4226V14.5774C-1.32925e-05 17.6911 -2.68325e-05 20.1311 0.255942 22.035C0.51794 23.9837 1.06468 25.5215 2.27163 26.7284C3.47858 27.9354 5.01629 28.482 6.965 28.7441C8.86886 29 11.309 29 14.4226 29H14.5774C17.6911 29 20.1311 29 22.035 28.7441C23.9837 28.482 25.5215 27.9354 26.7284 26.7284C27.9354 25.5215 28.482 23.9837 28.7441 22.035C29 20.1311 29 17.6911 29 14.5774V14.4226C29 11.309 29 8.86886 28.7441 6.965C28.482 5.01629 27.9354 3.47858 26.7284 2.27163C25.5215 1.06468 23.9837 0.51794 22.035 0.255942C20.1311 -2.68325e-05 17.6911 -1.32925e-05 14.5774 1.95832e-07ZM3.70229 3.70229C4.47065 2.93391 5.51023 2.49299 7.2346 2.26115C8.98806 2.0254 11.2922 2.02326 14.5 2.02326C17.7078 2.02326 20.0119 2.0254 21.7654 2.26115C23.4897 2.49299 24.5293 2.93391 25.2977 3.70229C26.0661 4.47065 26.5071 5.51023 26.7388 7.2346C26.9746 8.98806 26.9767 11.2922 26.9767 14.5C26.9767 17.7078 26.9746 20.0119 26.7388 21.7654C26.5071 23.4897 26.0661 24.5293 25.2977 25.2977C24.5293 26.0661 23.4897 26.5071 21.7654 26.7388C20.0119 26.9746 17.7078 26.9767 14.5 26.9767C11.2922 26.9767 8.98806 26.9746 7.2346 26.7388C5.51023 26.5071 4.47065 26.0661 3.70229 25.2977C2.93391 24.5293 2.49299 23.4897 2.26115 21.7654C2.0254 20.0119 2.02326 17.7078 2.02326 14.5C2.02326 11.2922 2.0254 8.98806 2.26115 7.2346C2.49299 5.51023 2.93391 4.47065 3.70229 3.70229Z" fill="#1C274C"/>
</g>
</svg>
