<svg width="32" height="27" viewBox="0 0 32 27" fill="none" xmlns="http://www.w3.org/2000/svg">
<path id="Vector" d="M25.127 2.25C26.0406 2.24735 26.9456 2.42468 27.7886 2.77156C28.6317 3.11845 29.3958 3.62788 30.036 4.2699C30.6763 4.91191 31.1797 5.67355 31.5167 6.51002C31.8537 7.34649 32.0176 8.2409 31.9985 9.14064C31.9795 10.0404 31.778 10.9273 31.4058 11.7492C31.0337 12.5711 30.4985 13.3114 29.8317 13.9266C29.1648 14.5418 28.3798 15.0194 27.5228 15.3314C26.6659 15.6434 25.7542 15.7834 24.8415 15.7432C24.3354 17.6768 23.1913 19.3898 21.589 20.6129C19.9867 21.836 18.0171 22.4998 15.9899 22.5H9.13709C6.71378 22.5 4.38973 21.5518 2.67619 19.864C0.962655 18.1761 0 15.8869 0 13.5V1.125C0 0.826631 0.120332 0.540484 0.334524 0.329505C0.548716 0.118527 0.839223 0 1.14214 0H23.9849C24.2878 0 24.5783 0.118527 24.7925 0.329505C25.0067 0.540484 25.127 0.826631 25.127 1.125V2.25ZM25.127 4.5V13.5C26.3386 13.5 27.5007 13.0259 28.3574 12.182C29.2142 11.3381 29.6955 10.1935 29.6955 9C29.6955 7.80653 29.2142 6.66193 28.3574 5.81802C27.5007 4.97411 26.3386 4.5 25.127 4.5ZM1.14214 24.75H23.9849C24.2878 24.75 24.5783 24.8685 24.7925 25.0795C25.0067 25.2905 25.127 25.5766 25.127 25.875C25.127 26.1734 25.0067 26.4595 24.7925 26.6705C24.5783 26.8815 24.2878 27 23.9849 27H1.14214C0.839223 27 0.548716 26.8815 0.334524 26.6705C0.120332 26.4595 0 26.1734 0 25.875C0 25.5766 0.120332 25.2905 0.334524 25.0795C0.548716 24.8685 0.839223 24.75 1.14214 24.75ZM2.28427 2.25V13.5C2.28427 15.2902 3.00626 17.0071 4.29142 18.273C5.57657 19.5388 7.31961 20.25 9.13709 20.25H15.9899C17.8074 20.25 19.5504 19.5388 20.8356 18.273C22.1207 17.0071 22.8427 15.2902 22.8427 13.5V2.25H2.28427Z" fill="black"/>
</svg>
