<svg width="16" height="14" viewBox="0 0 16 14" fill="none" xmlns="http://www.w3.org/2000/svg">
<g id="Emoji">
<path id="Vector" d="M15.1111 10.2649C14.9258 9.83689 14.7129 9.37244 14.2222 9.37244H13.7778C14.2684 9.37244 14.6667 8.97289 14.6667 8.48V0.892445C14.6667 0.399556 14.2684 0 13.7778 0H2.22222C1.73156 0 1.33333 0.399556 1.33333 0.892445V8.48C1.33333 8.97289 1.73156 9.37244 2.22222 9.37244H1.77778C1.28711 9.37244 1.03689 9.81867 0.888889 10.2649L0 12.4404C0 12.9338 0.398222 13.3333 0.888889 13.3333H15.1111C15.6018 13.3333 16 12.9338 16 12.4409L15.1111 10.2649Z" fill="#CCD6DD"/>
<path id="Vector_2" d="M0.00354004 12.4778L0.00620671 12.5031L0.0817623 12.8107C0.222207 13.1182 0.529762 13.3333 0.888873 13.3333H15.1111C15.5893 13.3333 15.9764 12.9533 15.9964 12.4778H0.00354004Z" fill="#9AAAB4"/>
<path id="Vector_3" d="M13.7778 8.03327C13.7778 8.27993 13.5791 8.47949 13.3333 8.47949H2.66667C2.42134 8.47949 2.22223 8.27993 2.22223 8.03327V1.33904C2.22223 1.09238 2.42134 0.892822 2.66667 0.892822H13.3333C13.5791 0.892822 13.7778 1.09282 13.7778 1.33904V8.03327Z" fill="#5DADEC"/>
<path id="Vector_4" d="M14.6249 11.1299L14.2871 10.1633C14.1809 9.95882 14.0049 9.79126 13.7591 9.79126H2.2711C2.02577 9.79126 1.86843 9.97259 1.75732 10.2517L1.45154 11.1304C1.35421 11.3953 1.65065 11.5766 1.89599 11.5766H5.26399C5.26399 11.5766 5.68043 11.5557 5.75421 11.3064C5.83954 11.0184 5.93865 10.5846 5.95999 10.5081C5.99288 10.3908 6.13243 10.2721 6.34043 10.2721H10.1529C10.3751 10.2721 10.4844 10.3846 10.5133 10.5237C10.532 10.6144 10.652 11.0308 10.708 11.3157C10.7573 11.5695 11.2507 11.5761 11.2507 11.5761H14.1813C14.4262 11.5761 14.7222 11.3668 14.6249 11.1299Z" fill="#AEBBC1"/>
<path id="Vector_5" d="M9.94442 12.05H6.4862C6.31953 12.05 6.24709 11.8976 6.27109 11.75C6.29509 11.6029 6.43064 10.9532 6.44131 10.8776C6.45153 10.8016 6.56309 10.7109 6.6742 10.7109H9.79197C9.92397 10.7109 10.0098 10.7834 10.0364 10.9283C10.0626 11.0736 10.1706 11.6576 10.1791 11.7909C10.1875 11.9247 10.104 12.05 9.94442 12.05Z" fill="#9AAAB4"/>
</g>
</svg>
