<svg width="23" height="22" viewBox="0 0 23 22" fill="none" xmlns="http://www.w3.org/2000/svg">
<path id="Vector" d="M10.6324 2.08049C10.9072 1.46458 11.0447 1.15663 11.2362 1.06179C11.4024 0.979402 11.5976 0.979402 11.7639 1.06179C11.9553 1.15663 12.0928 1.46458 12.3677 2.08049L14.5573 6.9863C14.6386 7.16838 14.6793 7.25941 14.7422 7.32913C14.7978 7.39082 14.8658 7.44016 14.9417 7.47394C15.0275 7.51212 15.1268 7.52258 15.3253 7.5435L20.6739 8.10727C21.3454 8.17804 21.6811 8.21342 21.8306 8.36591C21.9604 8.49836 22.0207 8.68383 21.9936 8.86721C21.9625 9.07829 21.7117 9.30396 21.2102 9.75542L17.2148 13.3512C17.0666 13.4846 16.9924 13.5513 16.9455 13.6326C16.9039 13.7046 16.8779 13.7844 16.8693 13.8669C16.8594 13.9602 16.8801 14.0577 16.9215 14.2528L18.0375 19.507C18.1776 20.1666 18.2476 20.4964 18.1486 20.6855C18.0625 20.8498 17.9046 20.9644 17.7216 20.9953C17.5109 21.0309 17.2185 20.8625 16.6335 20.5256L11.9746 17.842C11.8017 17.7424 11.7153 17.6927 11.6234 17.6731C11.542 17.6559 11.458 17.6559 11.3766 17.6731C11.2847 17.6927 11.1983 17.7424 11.0254 17.842L6.3665 20.5256C5.78159 20.8625 5.48914 21.0309 5.27848 20.9953C5.09548 20.9644 4.9375 20.8498 4.85148 20.6855C4.75246 20.4964 4.82251 20.1666 4.96262 19.507L6.07852 14.2528C6.11994 14.0577 6.14065 13.9602 6.13082 13.8669C6.12211 13.7844 6.09615 13.7046 6.05459 13.6326C6.00762 13.5513 5.93348 13.4846 5.7852 13.3512L1.78992 9.75542C1.28834 9.30396 1.03754 9.07829 1.00636 8.86721C0.979284 8.68383 1.03962 8.49836 1.16945 8.36591C1.31893 8.21342 1.65467 8.17804 2.32617 8.10727L7.67474 7.5435C7.87325 7.52258 7.9725 7.51212 8.05833 7.47394C8.13426 7.44016 8.20226 7.39082 8.2579 7.32913C8.32078 7.25941 8.36141 7.16838 8.44269 6.9863L10.6324 2.08049Z" stroke="#2C4193" stroke-width="2" stroke-linecap="round" stroke-linejoin="round"/>
</svg>
