<svg width="23" height="22" viewBox="0 0 23 22" fill="none" xmlns="http://www.w3.org/2000/svg">
<g id="Filter Icon">
<path id="Path" d="M3.83325 4.5835H15.3333" stroke="#464545" stroke-linecap="round"/>
<path id="Path_2" d="M3.83325 11H9.58325" stroke="#464545" stroke-linecap="round"/>
<path id="Path_3" d="M13.4167 11H19.1667" stroke="#464545" stroke-linecap="round"/>
<path id="Path_4" d="M7.66675 17.4165H19.1667" stroke="#464545" stroke-linecap="round"/>
<path id="Oval" d="M17.2499 6.41667C18.3085 6.41667 19.1666 5.59586 19.1666 4.58333C19.1666 3.57081 18.3085 2.75 17.2499 2.75C16.1914 2.75 15.3333 3.57081 15.3333 4.58333C15.3333 5.59586 16.1914 6.41667 17.2499 6.41667Z" stroke="#464545" stroke-linecap="round"/>
<path id="Oval_2" d="M11.4999 12.8332C12.5585 12.8332 13.4166 12.0124 13.4166 10.9998C13.4166 9.98732 12.5585 9.1665 11.4999 9.1665C10.4414 9.1665 9.58325 9.98732 9.58325 10.9998C9.58325 12.0124 10.4414 12.8332 11.4999 12.8332Z" stroke="#464545" stroke-linecap="round"/>
<path id="Oval_3" d="M5.74992 19.2502C6.80846 19.2502 7.66659 18.4294 7.66659 17.4168C7.66659 16.4043 6.80846 15.5835 5.74992 15.5835C4.69137 15.5835 3.83325 16.4043 3.83325 17.4168C3.83325 18.4294 4.69137 19.2502 5.74992 19.2502Z" stroke="#464545" stroke-linecap="round"/>
</g>
</svg>
