<svg width="24" height="24" viewBox="0 0 24 24" fill="none" xmlns="http://www.w3.org/2000/svg">
<path id="Vector" d="M16.8416 8.61302C17.2432 8.21135 17.2432 7.56008 16.8416 7.15841C16.4399 6.75673 15.7886 6.75673 15.3869 7.15841L16.8416 8.61302ZM7.15832 15.387C6.75665 15.7887 6.75665 16.4399 7.15832 16.8416C7.56001 17.2432 8.21126 17.2432 8.61294 16.8416L7.15832 15.387ZM8.61311 7.15841C8.21143 6.75673 7.56018 6.75673 7.15849 7.15841C6.75681 7.56008 6.75681 8.21135 7.15849 8.61302L8.61311 7.15841ZM15.387 16.8416C15.7887 17.2432 16.44 17.2432 16.8417 16.8416C17.2434 16.4399 17.2434 15.7887 16.8417 15.387L15.387 16.8416ZM15.3869 7.15841L7.15832 15.387L8.61294 16.8416L16.8416 8.61302L15.3869 7.15841ZM7.15849 8.61302L15.387 16.8416L16.8417 15.387L8.61311 7.15841L7.15849 8.61302ZM6.51429 2.05714H17.4857V0H6.51429V2.05714ZM21.9429 6.51429V17.4857H24V6.51429H21.9429ZM17.4857 21.9429H6.51429V24H17.4857V21.9429ZM2.05714 17.4857V6.51429H0V17.4857H2.05714ZM6.51429 21.9429C4.05267 21.9429 2.05714 19.9473 2.05714 17.4857H0C0 21.0835 2.91655 24 6.51429 24V21.9429ZM21.9429 17.4857C21.9429 19.9473 19.9473 21.9429 17.4857 21.9429V24C21.0835 24 24 21.0835 24 17.4857H21.9429ZM17.4857 2.05714C19.9473 2.05714 21.9429 4.05267 21.9429 6.51429H24C24 2.91655 21.0835 0 17.4857 0V2.05714ZM6.51429 0C2.91655 0 0 2.91655 0 6.51429H2.05714C2.05714 4.05267 4.05267 2.05714 6.51429 2.05714V0Z" fill="#2C4193"/>
</svg>
