<svg width="32" height="32" viewBox="0 0 32 32" fill="none" xmlns="http://www.w3.org/2000/svg">
<g id="Group">
<path id="Vector" d="M12.7978 15.9035L14.936 13.7658C12.4481 12.6224 9.40199 13.0733 7.35535 15.1204C4.72953 17.7458 4.72953 22.0187 7.35535 24.6451C9.98068 27.2709 14.2541 27.2709 16.8795 24.6451C18.9262 22.5985 19.3775 19.5519 18.2342 17.0639L16.096 19.2021C16.3073 20.4506 15.9365 21.7786 14.9748 22.7399C13.3992 24.316 10.8357 24.316 9.26018 22.7399C7.68454 21.1642 7.68454 18.6008 9.26018 17.0256C10.2217 16.0635 11.5497 15.6921 12.7978 15.9035Z" fill="#2C4193"/>
<path id="Vector_2" d="M20.2268 15.0716C22.372 18.6889 21.8919 23.4429 18.7845 26.5498C15.1079 30.2264 9.12653 30.2264 5.45039 26.5498C1.77374 22.8737 1.77374 16.8918 5.45039 13.2152C8.55684 10.1083 13.3114 9.62816 16.9286 11.773L18.8796 9.82141C14.1679 6.65308 7.7074 7.14828 3.54513 11.31C-1.18171 16.0363 -1.18171 23.7282 3.54513 28.4545C8.27202 33.1819 15.9629 33.1819 20.6897 28.4545C24.8524 24.2923 25.3471 17.8318 22.1778 13.1196L20.2268 15.0716Z" fill="#2C4193"/>
<path id="Vector_3" d="M31.955 5.30241C31.8543 5.04022 31.5997 4.87865 31.3113 4.89178L26.901 5.09866L27.1084 0.688885C27.1209 0.400009 26.9594 0.146383 26.6972 0.0447573C26.4366 -0.0558682 26.1271 0.0165697 25.9147 0.227946L21.2085 4.93459L20.9705 10.0172L12.4146 18.5726C11.9793 18.474 11.5042 18.5907 11.165 18.9298C10.6387 19.4562 10.6387 20.3087 11.165 20.8351C11.6909 21.3615 12.5439 21.3615 13.0703 20.8351C13.4089 20.4959 13.5262 20.0208 13.4276 19.5851L21.983 11.0292L27.0651 10.7917L31.7718 6.08441C31.9837 5.8726 32.0556 5.56403 31.955 5.30241Z" fill="#2C4193"/>
</g>
</svg>
