<svg width="28" height="28" viewBox="0 0 28 28" fill="none" xmlns="http://www.w3.org/2000/svg">
<path id="Vector" d="M20.6913 7.30867C19.3759 7.30841 18.0895 7.69581 16.993 8.42247C15.8964 9.14914 15.0383 10.1828 14.5259 11.3944C13.9505 12.7554 15.1991 14 16.6765 14H24.7061C26.1849 14 27.4322 12.7554 26.8567 11.3944C26.3443 10.1828 25.4862 9.14914 24.3897 8.42247C23.2932 7.69581 22.0068 7.30841 20.6913 7.30867ZM20.6913 20.6913C20.6916 19.3759 20.3042 18.0895 19.5775 16.993C18.8509 15.8964 17.8172 15.0383 16.6056 14.5259C15.2446 13.9505 14 15.1991 14 16.6765V24.7061C14 26.1849 15.2446 27.4322 16.6056 26.8567C17.8172 26.3443 18.8509 25.4862 19.5775 24.3897C20.3042 23.2932 20.6916 22.0068 20.6913 20.6913ZM7.30867 20.6913C8.62413 20.6916 9.9105 20.3042 11.007 19.5775C12.1036 18.8509 12.9617 17.8172 13.4741 16.6056C14.0495 15.2446 12.8009 14 11.3235 14H3.29387C1.81508 14 0.567816 15.2446 1.14327 16.6056C1.65567 17.8172 2.51375 18.8509 3.61029 19.5775C4.70683 20.3042 5.9932 20.6916 7.30867 20.6913ZM7.30867 7.30867C7.30841 8.62413 7.69581 9.9105 8.42247 11.007C9.14914 12.1036 10.1828 12.9617 11.3944 13.4741C12.7554 14.0495 14 12.8009 14 11.3235V3.29387C14 1.81508 12.7554 0.567816 11.3944 1.14327C10.1828 1.65567 9.14914 2.51375 8.42247 3.61029C7.69581 4.70683 7.30841 5.9932 7.30867 7.30867Z" stroke="#2C4193" stroke-width="2" stroke-linecap="round" stroke-linejoin="round"/>
</svg>
