<svg width="25" height="25" viewBox="0 0 25 25" fill="none" xmlns="http://www.w3.org/2000/svg">
<g id="LinkedIn logo" clip-path="url(#clip0_1246_45378)">
<path id="Vector" d="M21.25 0H3.75C1.67893 0 0 1.67893 0 3.75V21.25C0 23.3211 1.67893 25 3.75 25H21.25C23.3211 25 25 23.3211 25 21.25V3.75C25 1.67893 23.3211 0 21.25 0Z" fill="#0077B5"/>
<path id="Vector_2" d="M6.93359 8.54492C7.93137 8.54492 8.74023 7.73606 8.74023 6.73828C8.74023 5.7405 7.93137 4.93164 6.93359 4.93164C5.93581 4.93164 5.12695 5.7405 5.12695 6.73828C5.12695 7.73606 5.93581 8.54492 6.93359 8.54492Z" fill="white"/>
<path id="Vector_3" d="M11.9141 9.47266V19.1406V9.47266ZM6.93359 9.47266V19.1406V9.47266Z" fill="white"/>
<path id="Vector (Stroke)" fill-rule="evenodd" clip-rule="evenodd" d="M5.32227 19.1406V9.47266H8.54492V19.1406H5.32227ZM10.3027 19.1406V9.47266H13.5254V19.1406H10.3027Z" fill="white"/>
<path id="Vector_4" d="M13.4766 13.7695C13.4766 12.793 14.1113 11.8164 15.2344 11.8164C16.4062 11.8164 16.8457 12.6953 16.8457 14.0137V19.1406H20.0684V13.623C20.0684 10.6445 18.5059 9.27734 16.3574 9.27734C14.6973 9.27734 13.8672 10.2051 13.4766 10.8398" fill="white"/>
</g>
<defs>
<clipPath id="clip0_1246_45378">
<rect width="25" height="25" fill="white"/>
</clipPath>
</defs>
</svg>
