<svg width="18" height="22" viewBox="0 0 18 22" fill="none" xmlns="http://www.w3.org/2000/svg">
<g id="Group 22">
<path id="Vector" d="M16.9783 8.30991C16.9783 15.0355 8.6087 21.761 8.6087 21.761C8.6087 21.761 0.239136 15.0355 0.239136 8.30991C0.239136 3.85261 3.98632 0.239258 8.6087 0.239258C13.2311 0.239258 16.9783 3.85261 16.9783 8.30991Z" fill="#F5628E"/>
<path id="Vector (Stroke)" fill-rule="evenodd" clip-rule="evenodd" d="M8.6087 0.478261C4.11011 0.478261 0.478261 3.99268 0.478261 8.30978C0.478261 11.584 2.5222 14.8906 4.60795 17.4047C5.64617 18.6561 6.68503 19.6997 7.4645 20.4305C7.85409 20.7957 8.17849 21.0824 8.40509 21.2775C8.4859 21.3471 8.55427 21.405 8.6087 21.4507C8.66312 21.405 8.73149 21.3471 8.8123 21.2775C9.03891 21.0824 9.3633 20.7957 9.75289 20.4305C10.5324 19.6997 11.5712 18.6561 12.6094 17.4047C14.6952 14.8906 16.7391 11.584 16.7391 8.30978C16.7391 3.99268 13.1073 0.478261 8.6087 0.478261ZM8.6087 21.7609C8.45891 21.9473 8.45883 21.9472 8.45872 21.9471L8.45835 21.9468L8.45702 21.9458L8.45212 21.9418L8.43344 21.9266C8.41711 21.9133 8.39311 21.8936 8.36194 21.8677C8.2996 21.8159 8.20861 21.7395 8.09304 21.64C7.86194 21.441 7.53246 21.1497 7.1374 20.7794C6.34758 20.0389 5.29405 18.9807 4.23987 17.7101C2.14084 15.18 0 11.7611 0 8.30978C0 3.7123 3.86252 0 8.6087 0C13.3549 0 17.2174 3.7123 17.2174 8.30978C17.2174 11.7611 15.0765 15.18 12.9775 17.7101C11.9233 18.9807 10.8698 20.0389 10.08 20.7794C9.68493 21.1497 9.35546 21.441 9.12435 21.64C9.00879 21.7395 8.91779 21.8159 8.85545 21.8677C8.82429 21.8936 8.80028 21.9133 8.78395 21.9266L8.76527 21.9418L8.76037 21.9458L8.75905 21.9468L8.75867 21.9471C8.75856 21.9472 8.75848 21.9473 8.6087 21.7609ZM8.6087 21.7609L8.75848 21.9473C8.671 22.0176 8.54639 22.0176 8.45891 21.9473L8.6087 21.7609Z" fill="#F5628E"/>
<path id="Vector_2" d="M8.60869 12.1954C10.5897 12.1954 12.1956 10.5895 12.1956 8.60844C12.1956 6.62742 10.5897 5.02148 8.60869 5.02148C6.62766 5.02148 5.02173 6.62742 5.02173 8.60844C5.02173 10.5895 6.62766 12.1954 8.60869 12.1954Z" fill="white"/>
<path id="Vector (Stroke)_2" fill-rule="evenodd" clip-rule="evenodd" d="M8.60868 5.26049C6.75973 5.26049 5.26085 6.75936 5.26085 8.60831C5.26085 10.4573 6.75973 11.9561 8.60868 11.9561C10.4576 11.9561 11.9565 10.4573 11.9565 8.60831C11.9565 6.75936 10.4576 5.26049 8.60868 5.26049ZM4.78259 8.60831C4.78259 6.49522 6.49559 4.78223 8.60868 4.78223C10.7218 4.78223 12.4348 6.49522 12.4348 8.60831C12.4348 10.7214 10.7218 12.4344 8.60868 12.4344C6.49559 12.4344 4.78259 10.7214 4.78259 8.60831Z" fill="white"/>
</g>
</svg>
