<svg width="25" height="25" viewBox="0 0 25 25" fill="none" xmlns="http://www.w3.org/2000/svg">
<g id="website-ui-web_svgrepo.com" clip-path="url(#clip0_1246_45384)">
<path id="Vector" d="M12.5 0C5.59644 0 0 5.59644 0 12.5C0 19.4036 5.59644 25 12.5 25C19.4036 25 25 19.4036 25 12.5C25 5.59644 19.4036 0 12.5 0ZM20.4236 7.12891H18.1449C17.883 6.02964 17.5432 5.0189 17.1397 4.12529C17.9105 4.55381 18.6265 5.09194 19.2672 5.73276C19.7003 6.16587 20.0863 6.6335 20.4236 7.12891ZM22.0703 12.5C22.0703 13.3354 21.9633 14.1542 21.7571 14.9414H18.6305C18.7086 14.1518 18.75 13.3356 18.75 12.5C18.75 11.6644 18.7086 10.8482 18.6305 10.0586H21.7571C21.9633 10.8458 22.0703 11.6646 22.0703 12.5ZM12.5 22.0703C12.2461 22.0703 11.4723 21.5712 10.701 20.0287C10.3815 19.3896 10.1073 18.6618 9.88301 17.8711H15.1169C14.8926 18.6617 14.6185 19.3896 14.299 20.0287C13.5277 21.5712 12.7539 22.0703 12.5 22.0703ZM9.31704 14.9414C9.22686 14.1481 9.17969 13.3287 9.17969 12.5C9.17969 11.6713 9.22686 10.8519 9.31704 10.0586H15.683C15.7731 10.8519 15.8203 11.6713 15.8203 12.5C15.8203 13.3287 15.7731 14.1481 15.683 14.9414H9.31704ZM2.92969 12.5C2.92969 11.6646 3.03667 10.8458 3.24287 10.0586H6.36953C6.29136 10.8482 6.25 11.6644 6.25 12.5C6.25 13.3356 6.29136 14.1518 6.36953 14.9414H3.24287C3.03667 14.1542 2.92969 13.3354 2.92969 12.5ZM12.5 2.92969C12.7539 2.92969 13.5277 3.42876 14.299 4.97134C14.6185 5.61035 14.8927 6.33823 15.117 7.12891H9.88301C10.1073 6.33828 10.3814 5.61035 10.701 4.97134C11.4723 3.42876 12.2461 2.92969 12.5 2.92969ZM7.8603 4.12529C7.45679 5.0189 7.11704 6.02959 6.85508 7.12891H4.57642C4.91377 6.6335 5.29966 6.16587 5.73276 5.73276C6.37358 5.09194 7.0895 4.55381 7.8603 4.12529ZM4.57642 17.8711H6.85508C7.11704 18.9704 7.45684 19.9811 7.8603 20.8747C7.0895 20.4462 6.37354 19.9081 5.73276 19.2672C5.29966 18.8341 4.91372 18.3665 4.57642 17.8711ZM17.1397 20.8747C17.5432 19.9811 17.883 18.9704 18.1449 17.8711H20.4236C20.0862 18.3665 19.7003 18.8341 19.2672 19.2672C18.6264 19.9081 17.9105 20.4462 17.1397 20.8747Z" fill="#2C4193"/>
</g>
<defs>
<clipPath id="clip0_1246_45384">
<rect width="25" height="25" fill="white"/>
</clipPath>
</defs>
</svg>
